<?xml version="1.0" encoding="utf-8"?>
<!-- Generator: Adobe Illustrator 23.0.2, SVG Export Plug-In . SVG Version: 6.00 Build 0)  -->
<svg version="1.1" id="Layer_1" xmlns="http://www.w3.org/2000/svg" xmlns:xlink="http://www.w3.org/1999/xlink" x="0px" y="0px"
	 viewBox="0 0 328.6 126" style="enable-background:new 0 0 328.6 126;" xml:space="preserve">
<style type="text/css">
	.st0{fill:#373A36;}
	.st1{fill:#FFFFFF;}
	.st2{fill:#93272C;}
	.st3{fill:#96262C;}
	.st4{fill:#3A3A3A;}
	.st5{fill:#676767;}
</style>
<g>
	<g>
		<path class="st0" d="M192.5,50.6c0,6-1.9,10.6-5.6,13.8c-3.7,3.2-9.1,4.8-16,4.8h-5.1v19.8H154V33.2h17.8c6.8,0,11.9,1.5,15.4,4.4
			C190.8,40.5,192.5,44.8,192.5,50.6z M165.8,59.4h3.9c3.6,0,6.4-0.7,8.2-2.2c1.8-1.4,2.7-3.5,2.7-6.3c0-2.8-0.8-4.8-2.3-6.1
			c-1.5-1.3-3.9-2-7.1-2h-5.4V59.4z"/>
		<path class="st0" d="M228.4,88.9l-2.2-5.8h-0.3c-2,2.5-4,4.2-6,5.1c-2.1,1-4.8,1.4-8.1,1.4c-4.1,0-7.3-1.2-9.7-3.5
			c-2.4-2.3-3.5-5.7-3.5-10c0-4.5,1.6-7.9,4.7-10c3.2-2.1,7.9-3.3,14.3-3.6l7.4-0.2v-1.9c0-4.3-2.2-6.5-6.6-6.5c-3.4,0-7.4,1-12,3.1
			l-3.8-7.9c4.9-2.6,10.3-3.8,16.3-3.8c5.7,0,10.1,1.2,13.2,3.7s4.6,6.3,4.6,11.4v28.4H228.4z M225,69.2l-4.5,0.2
			c-3.4,0.1-5.9,0.7-7.5,1.8c-1.7,1.1-2.5,2.8-2.5,5.1c0,3.3,1.9,4.9,5.6,4.9c2.7,0,4.8-0.8,6.5-2.3c1.6-1.5,2.4-3.6,2.4-6.2V69.2z"
			/>
		<path class="st0" d="M241.6,46.3h12.7l8,24c0.7,2.1,1.2,4.5,1.4,7.4h0.2c0.3-2.6,0.8-5.1,1.6-7.4l7.9-24H286l-18,48.1
			c-1.7,4.4-4,7.8-7.1,10c-3.1,2.2-6.6,3.3-10.7,3.3c-2,0-4-0.2-5.9-0.6v-9.2c1.4,0.3,2.9,0.5,4.6,0.5c2.1,0,3.9-0.6,5.4-1.9
			c1.5-1.3,2.7-3.2,3.6-5.7l0.7-2.1L241.6,46.3z"/>
	</g>
	<g>
		<path class="st2" d="M75.3,18.4c-18,0-32.7,14.6-32.7,32.7c0,7.3,2.4,14.2,6.9,20l25.8,32.6L101.1,71c4.5-5.8,6.9-12.7,6.9-20
			C107.9,33,93.3,18.4,75.3,18.4"/>
		<path class="st1" d="M88.8,60.1c-1.6,0-2.9,1.3-2.9,2.9c0,1.6,1.3,2.9,2.9,2.9c1.6,0,2.9-1.3,2.9-2.9
			C91.8,61.4,90.4,60.1,88.8,60.1"/>
		<path class="st1" d="M61.7,60.1c-1.6,0-2.9,1.3-2.9,2.9c0,1.6,1.3,2.9,2.9,2.9c1.6,0,2.9-1.3,2.9-2.9
			C64.6,61.4,63.3,60.1,61.7,60.1"/>
		<path class="st1" d="M95.9,67.2L75.3,92.6L54.6,67.2C51.1,62.7,49,57.1,49,51c0-14.5,11.7-26.2,26.2-26.2
			c14.5,0,26.2,11.7,26.2,26.2C101.5,57.1,99.4,62.7,95.9,67.2 M75.3,20.3c-16.9,0-30.7,13.8-30.7,30.7c0,6.9,2.2,13.4,6.5,18.8
			l24.2,30.4l24.2-30.4c4.2-5.4,6.5-11.9,6.5-18.8C106,34.1,92.2,20.3,75.3,20.3"/>
		<path class="st1" d="M70.2,33.8c-0.7,0-1.2,0.5-1.3,1.1h2.6C71.4,34.3,70.8,33.8,70.2,33.8"/>
		<path class="st1" d="M75.3,33.8c-0.7,0-1.2,0.5-1.3,1.1h2.6C76.5,34.3,75.9,33.8,75.3,33.8"/>
		<path class="st1" d="M80.4,33.8c-0.7,0-1.2,0.5-1.3,1.1h2.6C81.6,34.3,81,33.8,80.4,33.8"/>
		<path class="st1" d="M90.8,37.4c0,0-4.9-1-15.6-1c-10.7,0-15.4,1-15.4,1l-1.2,10.1c0,0,4.1-1.4,16.8-1.4c12.6,0,16.7,1.4,16.7,1.4
			L90.8,37.4z"/>
		<path class="st1" d="M71.5,77.2V50.9c0.7,0,1.5-0.1,2.4-0.1v26.9c0.5,0.1,0.9,0.1,1.4,0.1c0.4,0,0.9,0,1.3-0.1V50.8
			c0.9,0,1.7,0.1,2.4,0.1v26.2c1.1-0.4,2.1-0.8,2.7-1.1V48.7c-0.2,0-3.9-0.8-6.5-0.8c-2.6,0-6.1,0.7-6.4,0.8V76
			C69.5,76.3,70.4,76.8,71.5,77.2"/>
	</g>
	<rect x="128.7" y="29.2" class="st0" width="1.1" height="63.5"/>
</g>
</svg>
